<mxfile host="65bd71144e">
    <diagram id="2-4ZYHGPJ8JMQXopquGW" name="PÃ¡gina-1">
        <mxGraphModel dx="1243" dy="1621" grid="1" gridSize="10" guides="1" tooltips="1" connect="1" arrows="1" fold="1" page="1" pageScale="1" pageWidth="827" pageHeight="1169" math="0" shadow="0">
            <root>
                <mxCell id="0"/>
                <mxCell id="1" parent="0"/>
                <mxCell id="3" value="" style="edgeStyle=segmentEdgeStyle;endArrow=classic;html=1;curved=0;rounded=0;endSize=8;startSize=8;sourcePerimeterSpacing=0;targetPerimeterSpacing=0;exitX=0.5;exitY=1;exitDx=0;exitDy=0;exitPerimeter=0;" parent="1" source="65" edge="1">
                    <mxGeometry width="100" relative="1" as="geometry">
                        <mxPoint x="200" y="-120" as="sourcePoint"/>
                        <mxPoint x="200" y="-40" as="targetPoint"/>
                        <Array as="points"/>
                    </mxGeometry>
                </mxCell>
                <mxCell id="4" value="x,y" style="shape=parallelogram;perimeter=parallelogramPerimeter;whiteSpace=wrap;html=1;fixedSize=1;fillColor=#008a00;fontColor=#ffffff;strokeColor=#005700;" parent="1" vertex="1">
                    <mxGeometry x="140" y="190" width="120" height="60" as="geometry"/>
                </mxCell>
                <mxCell id="5" value="ingresar numero de operacion" style="shape=parallelogram;perimeter=parallelogramPerimeter;whiteSpace=wrap;html=1;fixedSize=1;fillColor=#1ba1e2;fontColor=#ffffff;strokeColor=#006EAF;" parent="1" vertex="1">
                    <mxGeometry x="140" y="310" width="120" height="60" as="geometry"/>
                </mxCell>
                <mxCell id="6" value="" style="edgeStyle=segmentEdgeStyle;endArrow=classic;html=1;curved=0;rounded=0;endSize=8;startSize=8;sourcePerimeterSpacing=0;targetPerimeterSpacing=0;exitX=0.5;exitY=1;exitDx=0;exitDy=0;entryX=0.5;entryY=0;entryDx=0;entryDy=0;" parent="1" source="4" target="5" edge="1">
                    <mxGeometry width="100" relative="1" as="geometry">
                        <mxPoint x="280" y="220" as="sourcePoint"/>
                        <mxPoint x="380" y="260" as="targetPoint"/>
                        <Array as="points">
                            <mxPoint x="200" y="270"/>
                            <mxPoint x="200" y="270"/>
                        </Array>
                    </mxGeometry>
                </mxCell>
                <mxCell id="7" value="opc 1" style="rhombus;whiteSpace=wrap;html=1;fillColor=#0050ef;fontColor=#ffffff;strokeColor=#001DBC;" parent="1" vertex="1">
                    <mxGeometry x="160" y="440" width="80" height="80" as="geometry"/>
                </mxCell>
                <mxCell id="8" value="" style="edgeStyle=segmentEdgeStyle;endArrow=classic;html=1;curved=0;rounded=0;endSize=8;startSize=8;sourcePerimeterSpacing=0;targetPerimeterSpacing=0;exitX=0;exitY=0.5;exitDx=0;exitDy=0;entryX=0.5;entryY=0;entryDx=0;entryDy=0;" parent="1" source="7" target="9" edge="1">
                    <mxGeometry width="100" relative="1" as="geometry">
                        <mxPoint x="160" y="620" as="sourcePoint"/>
                        <mxPoint x="120" y="520" as="targetPoint"/>
                        <Array as="points">
                            <mxPoint x="120" y="480"/>
                        </Array>
                    </mxGeometry>
                </mxCell>
                <mxCell id="9" value="opc 2" style="rhombus;whiteSpace=wrap;html=1;fillColor=#6a00ff;fontColor=#ffffff;strokeColor=#3700CC;" parent="1" vertex="1">
                    <mxGeometry x="80" y="520" width="80" height="80" as="geometry"/>
                </mxCell>
                <mxCell id="10" value="opc 3" style="rhombus;whiteSpace=wrap;html=1;fillColor=#a20025;fontColor=#ffffff;strokeColor=#6F0000;" parent="1" vertex="1">
                    <mxGeometry y="600" width="80" height="80" as="geometry"/>
                </mxCell>
                <mxCell id="11" value="" style="edgeStyle=segmentEdgeStyle;endArrow=classic;html=1;curved=0;rounded=0;endSize=8;startSize=8;sourcePerimeterSpacing=0;targetPerimeterSpacing=0;exitX=0;exitY=0.5;exitDx=0;exitDy=0;entryX=0.5;entryY=0;entryDx=0;entryDy=0;" parent="1" source="10" edge="1">
                    <mxGeometry width="100" relative="1" as="geometry">
                        <mxPoint y="780" as="sourcePoint"/>
                        <mxPoint x="-40" y="680" as="targetPoint"/>
                        <Array as="points">
                            <mxPoint x="-40" y="640"/>
                        </Array>
                    </mxGeometry>
                </mxCell>
                <mxCell id="12" value="" style="edgeStyle=segmentEdgeStyle;endArrow=classic;html=1;curved=0;rounded=0;endSize=8;startSize=8;sourcePerimeterSpacing=0;targetPerimeterSpacing=0;exitX=0.025;exitY=0.588;exitDx=0;exitDy=0;exitPerimeter=0;" parent="1" source="9" target="10" edge="1">
                    <mxGeometry width="100" relative="1" as="geometry">
                        <mxPoint x="80" y="560" as="sourcePoint"/>
                        <mxPoint x="40" y="600" as="targetPoint"/>
                        <Array as="points">
                            <mxPoint x="82" y="560"/>
                            <mxPoint x="40" y="560"/>
                        </Array>
                    </mxGeometry>
                </mxCell>
                <mxCell id="13" value="" style="edgeStyle=segmentEdgeStyle;endArrow=classic;html=1;curved=0;rounded=0;endSize=8;startSize=8;sourcePerimeterSpacing=0;targetPerimeterSpacing=0;exitX=0;exitY=0.5;exitDx=0;exitDy=0;entryX=0.5;entryY=0;entryDx=0;entryDy=0;" parent="1" target="14" edge="1">
                    <mxGeometry width="100" relative="1" as="geometry">
                        <mxPoint y="640" as="sourcePoint"/>
                        <mxPoint x="-40" y="680" as="targetPoint"/>
                        <Array as="points">
                            <mxPoint x="-40" y="640"/>
                        </Array>
                    </mxGeometry>
                </mxCell>
                <mxCell id="14" value="opc 4" style="rhombus;whiteSpace=wrap;html=1;fillColor=#fa6800;fontColor=#000000;strokeColor=#C73500;" parent="1" vertex="1">
                    <mxGeometry x="-80" y="680" width="80" height="80" as="geometry"/>
                </mxCell>
                <mxCell id="15" value="opc 5" style="rhombus;whiteSpace=wrap;html=1;fillColor=#6d8764;fontColor=#ffffff;strokeColor=#3A5431;" parent="1" vertex="1">
                    <mxGeometry x="-160" y="760" width="80" height="80" as="geometry"/>
                </mxCell>
                <mxCell id="16" value="" style="edgeStyle=segmentEdgeStyle;endArrow=classic;html=1;curved=0;rounded=0;endSize=8;startSize=8;sourcePerimeterSpacing=0;targetPerimeterSpacing=0;exitX=0;exitY=0.5;exitDx=0;exitDy=0;entryX=0.5;entryY=0;entryDx=0;entryDy=0;" parent="1" source="15" target="18" edge="1">
                    <mxGeometry width="100" relative="1" as="geometry">
                        <mxPoint x="-160" y="940" as="sourcePoint"/>
                        <mxPoint x="-200" y="840" as="targetPoint"/>
                        <Array as="points">
                            <mxPoint x="-200" y="800"/>
                        </Array>
                    </mxGeometry>
                </mxCell>
                <mxCell id="17" value="" style="edgeStyle=segmentEdgeStyle;endArrow=classic;html=1;curved=0;rounded=0;endSize=8;startSize=8;sourcePerimeterSpacing=0;targetPerimeterSpacing=0;exitX=0.025;exitY=0.588;exitDx=0;exitDy=0;exitPerimeter=0;" parent="1" source="14" target="15" edge="1">
                    <mxGeometry width="100" relative="1" as="geometry">
                        <mxPoint x="-80" y="720" as="sourcePoint"/>
                        <mxPoint x="-120" y="760" as="targetPoint"/>
                        <Array as="points">
                            <mxPoint x="-78" y="720"/>
                            <mxPoint x="-120" y="720"/>
                        </Array>
                    </mxGeometry>
                </mxCell>
                <mxCell id="18" value="opc 6" style="rhombus;whiteSpace=wrap;html=1;fillColor=#76608a;fontColor=#ffffff;strokeColor=#432D57;" parent="1" vertex="1">
                    <mxGeometry x="-240" y="840" width="80" height="80" as="geometry"/>
                </mxCell>
                <mxCell id="19" value="" style="edgeStyle=segmentEdgeStyle;endArrow=classic;html=1;curved=0;rounded=0;endSize=8;startSize=8;sourcePerimeterSpacing=0;targetPerimeterSpacing=0;exitX=0;exitY=0.5;exitDx=0;exitDy=0;entryX=0.5;entryY=0;entryDx=0;entryDy=0;" parent="1" edge="1">
                    <mxGeometry width="100" relative="1" as="geometry">
                        <mxPoint x="-240" y="880" as="sourcePoint"/>
                        <mxPoint x="-280" y="920" as="targetPoint"/>
                        <Array as="points">
                            <mxPoint x="-280" y="880"/>
                        </Array>
                    </mxGeometry>
                </mxCell>
                <mxCell id="20" value="" style="edgeStyle=segmentEdgeStyle;endArrow=classic;html=1;curved=0;rounded=0;endSize=8;startSize=8;sourcePerimeterSpacing=0;targetPerimeterSpacing=0;exitX=1;exitY=0.5;exitDx=0;exitDy=0;entryX=0.5;entryY=0;entryDx=0;entryDy=0;" parent="1" source="18" edge="1">
                    <mxGeometry width="100" relative="1" as="geometry">
                        <mxPoint x="-80" y="880" as="sourcePoint"/>
                        <mxPoint x="-120" y="920" as="targetPoint"/>
                        <Array as="points">
                            <mxPoint x="-120" y="880"/>
                        </Array>
                    </mxGeometry>
                </mxCell>
                <mxCell id="21" value="" style="edgeStyle=segmentEdgeStyle;endArrow=classic;html=1;curved=0;rounded=0;endSize=8;startSize=8;sourcePerimeterSpacing=0;targetPerimeterSpacing=0;exitX=1;exitY=0.5;exitDx=0;exitDy=0;entryX=0.5;entryY=0;entryDx=0;entryDy=0;" parent="1" edge="1">
                    <mxGeometry width="100" relative="1" as="geometry">
                        <mxPoint x="-80" y="800" as="sourcePoint"/>
                        <mxPoint x="-40" y="840" as="targetPoint"/>
                        <Array as="points">
                            <mxPoint x="-40" y="800"/>
                        </Array>
                    </mxGeometry>
                </mxCell>
                <mxCell id="25" value="" style="edgeStyle=segmentEdgeStyle;endArrow=classic;html=1;curved=0;rounded=0;endSize=8;startSize=8;sourcePerimeterSpacing=0;targetPerimeterSpacing=0;exitX=1;exitY=0.5;exitDx=0;exitDy=0;entryX=0.5;entryY=0;entryDx=0;entryDy=0;" parent="1" edge="1">
                    <mxGeometry width="100" relative="1" as="geometry">
                        <mxPoint y="720" as="sourcePoint"/>
                        <mxPoint x="40" y="760" as="targetPoint"/>
                        <Array as="points">
                            <mxPoint x="40" y="720"/>
                        </Array>
                    </mxGeometry>
                </mxCell>
                <mxCell id="26" value="" style="edgeStyle=segmentEdgeStyle;endArrow=classic;html=1;curved=0;rounded=0;endSize=8;startSize=8;sourcePerimeterSpacing=0;targetPerimeterSpacing=0;exitX=1;exitY=0.5;exitDx=0;exitDy=0;entryX=0.5;entryY=0;entryDx=0;entryDy=0;" parent="1" edge="1">
                    <mxGeometry width="100" relative="1" as="geometry">
                        <mxPoint x="80" y="640" as="sourcePoint"/>
                        <mxPoint x="120" y="680" as="targetPoint"/>
                        <Array as="points">
                            <mxPoint x="120" y="640"/>
                        </Array>
                    </mxGeometry>
                </mxCell>
                <mxCell id="27" value="" style="edgeStyle=segmentEdgeStyle;endArrow=classic;html=1;curved=0;rounded=0;endSize=8;startSize=8;sourcePerimeterSpacing=0;targetPerimeterSpacing=0;exitX=1;exitY=0.5;exitDx=0;exitDy=0;entryX=0.5;entryY=0;entryDx=0;entryDy=0;" parent="1" edge="1">
                    <mxGeometry width="100" relative="1" as="geometry">
                        <mxPoint x="160" y="560" as="sourcePoint"/>
                        <mxPoint x="200" y="600" as="targetPoint"/>
                        <Array as="points">
                            <mxPoint x="200" y="560"/>
                        </Array>
                    </mxGeometry>
                </mxCell>
                <mxCell id="29" value="" style="edgeStyle=segmentEdgeStyle;endArrow=classic;html=1;curved=0;rounded=0;endSize=8;startSize=8;sourcePerimeterSpacing=0;targetPerimeterSpacing=0;exitX=1;exitY=0.5;exitDx=0;exitDy=0;entryX=0.5;entryY=0;entryDx=0;entryDy=0;" parent="1" edge="1">
                    <mxGeometry width="100" relative="1" as="geometry">
                        <mxPoint x="240" y="480" as="sourcePoint"/>
                        <mxPoint x="280" y="520" as="targetPoint"/>
                        <Array as="points">
                            <mxPoint x="280" y="480"/>
                        </Array>
                    </mxGeometry>
                </mxCell>
                <mxCell id="30" value="x+y" style="whiteSpace=wrap;html=1;fillColor=#d80073;fontColor=#ffffff;strokeColor=#A50040;" parent="1" vertex="1">
                    <mxGeometry x="220" y="520" width="120" height="60" as="geometry"/>
                </mxCell>
                <mxCell id="31" value="x-y" style="whiteSpace=wrap;html=1;fillColor=#e51400;fontColor=#ffffff;strokeColor=#B20000;" parent="1" vertex="1">
                    <mxGeometry x="140" y="600" width="120" height="60" as="geometry"/>
                </mxCell>
                <mxCell id="32" value="x*y" style="whiteSpace=wrap;html=1;fillColor=#f0a30a;fontColor=#000000;strokeColor=#BD7000;" parent="1" vertex="1">
                    <mxGeometry x="60" y="680" width="120" height="60" as="geometry"/>
                </mxCell>
                <mxCell id="33" value="x/y" style="whiteSpace=wrap;html=1;fillColor=#647687;fontColor=#ffffff;strokeColor=#314354;" parent="1" vertex="1">
                    <mxGeometry x="-20" y="760" width="120" height="60" as="geometry"/>
                </mxCell>
                <mxCell id="34" value="xÅ·" style="whiteSpace=wrap;html=1;fillColor=#a0522d;fontColor=#ffffff;strokeColor=#6D1F00;" parent="1" vertex="1">
                    <mxGeometry x="-100" y="840" width="120" height="60" as="geometry"/>
                </mxCell>
                <mxCell id="35" value="log^x y" style="whiteSpace=wrap;html=1;fillColor=#008a00;fontColor=#ffffff;strokeColor=#005700;" parent="1" vertex="1">
                    <mxGeometry x="-190" y="920" width="120" height="60" as="geometry"/>
                </mxCell>
                <mxCell id="37" value="no tiene operacion&lt;br&gt;digite un numero otra ves" style="whiteSpace=wrap;html=1;fillColor=#60a917;strokeColor=#2D7600;fontColor=#ffffff;" parent="1" vertex="1">
                    <mxGeometry x="-339" y="920" width="120" height="60" as="geometry"/>
                </mxCell>
                <mxCell id="45" value="" style="edgeStyle=segmentEdgeStyle;endArrow=classic;html=1;curved=0;rounded=0;endSize=8;startSize=8;sourcePerimeterSpacing=0;targetPerimeterSpacing=0;exitX=0.5;exitY=1;exitDx=0;exitDy=0;entryX=0.5;entryY=0;entryDx=0;entryDy=0;" parent="1" source="31" target="52" edge="1">
                    <mxGeometry width="100" relative="1" as="geometry">
                        <mxPoint x="230" y="680" as="sourcePoint"/>
                        <mxPoint x="210" y="1040" as="targetPoint"/>
                        <Array as="points">
                            <mxPoint x="210" y="660"/>
                        </Array>
                    </mxGeometry>
                </mxCell>
                <mxCell id="46" value="" style="edgeStyle=segmentEdgeStyle;endArrow=classic;html=1;curved=0;rounded=0;endSize=8;startSize=8;sourcePerimeterSpacing=0;targetPerimeterSpacing=0;exitX=0.5;exitY=1;exitDx=0;exitDy=0;entryX=0.5;entryY=0;entryDx=0;entryDy=0;" parent="1" source="30" target="52" edge="1">
                    <mxGeometry width="100" relative="1" as="geometry">
                        <mxPoint x="210" y="670" as="sourcePoint"/>
                        <mxPoint x="210" y="1040" as="targetPoint"/>
                        <Array as="points">
                            <mxPoint x="280" y="760"/>
                            <mxPoint x="210" y="760"/>
                        </Array>
                    </mxGeometry>
                </mxCell>
                <mxCell id="48" value="" style="edgeStyle=segmentEdgeStyle;endArrow=classic;html=1;curved=0;rounded=0;endSize=8;startSize=8;sourcePerimeterSpacing=0;targetPerimeterSpacing=0;exitX=0.5;exitY=1;exitDx=0;exitDy=0;entryX=0.5;entryY=0;entryDx=0;entryDy=0;" parent="1" source="32" target="52" edge="1">
                    <mxGeometry width="100" relative="1" as="geometry">
                        <mxPoint x="210" y="670" as="sourcePoint"/>
                        <mxPoint x="210" y="1040" as="targetPoint"/>
                        <Array as="points">
                            <mxPoint x="120" y="800"/>
                            <mxPoint x="210" y="800"/>
                        </Array>
                    </mxGeometry>
                </mxCell>
                <mxCell id="49" value="" style="edgeStyle=segmentEdgeStyle;endArrow=classic;html=1;curved=0;rounded=0;endSize=8;startSize=8;sourcePerimeterSpacing=0;targetPerimeterSpacing=0;entryX=0.5;entryY=0;entryDx=0;entryDy=0;exitX=0.5;exitY=1;exitDx=0;exitDy=0;" parent="1" source="33" target="52" edge="1">
                    <mxGeometry width="100" relative="1" as="geometry">
                        <mxPoint x="40" y="820" as="sourcePoint"/>
                        <mxPoint x="210" y="1040" as="targetPoint"/>
                        <Array as="points">
                            <mxPoint x="40" y="860"/>
                            <mxPoint x="210" y="860"/>
                        </Array>
                    </mxGeometry>
                </mxCell>
                <mxCell id="50" value="" style="edgeStyle=segmentEdgeStyle;endArrow=classic;html=1;curved=0;rounded=0;endSize=8;startSize=8;sourcePerimeterSpacing=0;targetPerimeterSpacing=0;exitX=0.5;exitY=1;exitDx=0;exitDy=0;entryX=0.5;entryY=0;entryDx=0;entryDy=0;" parent="1" source="34" target="52" edge="1">
                    <mxGeometry width="100" relative="1" as="geometry">
                        <mxPoint x="10" y="950" as="sourcePoint"/>
                        <mxPoint x="210" y="1040" as="targetPoint"/>
                        <Array as="points">
                            <mxPoint x="-40" y="960"/>
                            <mxPoint x="210" y="960"/>
                        </Array>
                    </mxGeometry>
                </mxCell>
                <mxCell id="51" value="" style="edgeStyle=segmentEdgeStyle;endArrow=classic;html=1;curved=0;rounded=0;endSize=8;startSize=8;sourcePerimeterSpacing=0;targetPerimeterSpacing=0;exitX=0.5;exitY=1;exitDx=0;exitDy=0;entryX=0.5;entryY=0;entryDx=0;entryDy=0;" parent="1" source="35" target="52" edge="1">
                    <mxGeometry width="100" relative="1" as="geometry">
                        <mxPoint x="80" y="1160" as="sourcePoint"/>
                        <mxPoint x="210" y="1040" as="targetPoint"/>
                        <Array as="points">
                            <mxPoint x="-120" y="1000"/>
                            <mxPoint x="210" y="1000"/>
                        </Array>
                    </mxGeometry>
                </mxCell>
                <mxCell id="52" value="resultado" style="shape=parallelogram;perimeter=parallelogramPerimeter;whiteSpace=wrap;html=1;fixedSize=1;fillColor=#1ba1e2;fontColor=#ffffff;strokeColor=#006EAF;" parent="1" vertex="1">
                    <mxGeometry x="150" y="1050" width="120" height="50" as="geometry"/>
                </mxCell>
                <mxCell id="55" value="" style="edgeStyle=segmentEdgeStyle;endArrow=classic;html=1;curved=0;rounded=0;endSize=8;startSize=8;sourcePerimeterSpacing=0;targetPerimeterSpacing=0;exitX=0.5;exitY=1;exitDx=0;exitDy=0;entryX=0.5;entryY=0;entryDx=0;entryDy=0;" parent="1" source="37" target="57" edge="1">
                    <mxGeometry width="100" relative="1" as="geometry">
                        <mxPoint x="-340" y="1090" as="sourcePoint"/>
                        <mxPoint y="1120" as="targetPoint"/>
                        <Array as="points">
                            <mxPoint x="-280" y="1120"/>
                            <mxPoint y="1120"/>
                        </Array>
                    </mxGeometry>
                </mxCell>
                <mxCell id="56" value="" style="edgeStyle=segmentEdgeStyle;endArrow=classic;html=1;curved=0;rounded=0;endSize=8;startSize=8;sourcePerimeterSpacing=0;targetPerimeterSpacing=0;exitX=0.5;exitY=1;exitDx=0;exitDy=0;entryX=0.5;entryY=0;entryDx=0;entryDy=0;" parent="1" source="52" target="57" edge="1">
                    <mxGeometry width="100" relative="1" as="geometry">
                        <mxPoint x="120" y="1120" as="sourcePoint"/>
                        <mxPoint x="30" y="1120" as="targetPoint"/>
                        <Array as="points">
                            <mxPoint x="210" y="1120"/>
                            <mxPoint y="1120"/>
                        </Array>
                    </mxGeometry>
                </mxCell>
                <mxCell id="57" value="output" style="shape=document;whiteSpace=wrap;html=1;boundedLbl=1;fillColor=#0050ef;fontColor=#ffffff;strokeColor=#001DBC;" parent="1" vertex="1">
                    <mxGeometry x="-60" y="1140" width="120" height="80" as="geometry"/>
                </mxCell>
                <mxCell id="58" value="" style="edgeStyle=none;orthogonalLoop=1;jettySize=auto;html=1;exitX=0.5;exitY=0.875;exitDx=0;exitDy=0;exitPerimeter=0;entryX=0.5;entryY=0;entryDx=0;entryDy=0;" parent="1" source="57" target="67" edge="1">
                    <mxGeometry width="100" relative="1" as="geometry">
                        <mxPoint x="-60" y="1340" as="sourcePoint"/>
                        <mxPoint y="1280" as="targetPoint"/>
                        <Array as="points"/>
                    </mxGeometry>
                </mxCell>
                <mxCell id="61" value="&lt;div style=&quot;&quot;&gt;&lt;span style=&quot;background-color: initial;&quot;&gt;1-suma(x+y)&lt;/span&gt;&lt;/div&gt;&lt;div style=&quot;&quot;&gt;&lt;span style=&quot;background-color: initial;&quot;&gt;2-resta(x-y)&lt;/span&gt;&lt;/div&gt;&lt;div style=&quot;&quot;&gt;&lt;span style=&quot;background-color: initial;&quot;&gt;3-multiplicacion(x*y)&lt;/span&gt;&lt;/div&gt;&lt;div style=&quot;&quot;&gt;&lt;span style=&quot;background-color: initial;&quot;&gt;4-division(x/y)&lt;/span&gt;&lt;/div&gt;&lt;div style=&quot;&quot;&gt;&lt;span style=&quot;background-color: initial;&quot;&gt;5-potencia(xÅ·)&lt;/span&gt;&lt;/div&gt;&lt;div style=&quot;&quot;&gt;&lt;span style=&quot;background-color: initial;&quot;&gt;6-logaritmo(log^x y)&lt;/span&gt;&lt;/div&gt;" style="shape=document;whiteSpace=wrap;html=1;boundedLbl=1;align=center;fillColor=#60a917;fontColor=#ffffff;strokeColor=#2D7600;" vertex="1" parent="1">
                    <mxGeometry x="115" y="-40" width="170" height="140" as="geometry"/>
                </mxCell>
                <mxCell id="63" value="" style="edgeStyle=none;orthogonalLoop=1;jettySize=auto;html=1;entryX=0.5;entryY=0;entryDx=0;entryDy=0;exitX=0.518;exitY=0.864;exitDx=0;exitDy=0;exitPerimeter=0;" edge="1" parent="1" source="61" target="4">
                    <mxGeometry width="100" relative="1" as="geometry">
                        <mxPoint x="200" y="120" as="sourcePoint"/>
                        <mxPoint x="420" y="80" as="targetPoint"/>
                        <Array as="points"/>
                    </mxGeometry>
                </mxCell>
                <mxCell id="64" value="" style="edgeStyle=none;orthogonalLoop=1;jettySize=auto;html=1;exitX=0.5;exitY=1;exitDx=0;exitDy=0;entryX=0.5;entryY=0;entryDx=0;entryDy=0;" edge="1" parent="1" source="5" target="7">
                    <mxGeometry width="100" relative="1" as="geometry">
                        <mxPoint x="320" y="270" as="sourcePoint"/>
                        <mxPoint x="420" y="270" as="targetPoint"/>
                        <Array as="points"/>
                    </mxGeometry>
                </mxCell>
                <mxCell id="65" value="inicio" style="ellipse;whiteSpace=wrap;html=1;fillColor=#60a917;fontColor=#ffffff;strokeColor=#2D7600;" vertex="1" parent="1">
                    <mxGeometry x="145" y="-200" width="110" height="80" as="geometry"/>
                </mxCell>
                <mxCell id="67" value="fin" style="ellipse;whiteSpace=wrap;html=1;fillColor=#6a00ff;fontColor=#ffffff;strokeColor=#3700CC;" vertex="1" parent="1">
                    <mxGeometry x="-55" y="1280" width="110" height="80" as="geometry"/>
                </mxCell>
            </root>
        </mxGraphModel>
    </diagram>
</mxfile>